<mxfile host="app.diagrams.net" modified="2024-05-21T09:24:35.145Z" agent="Mozilla/5.0 (Windows NT 10.0; Win64; x64) AppleWebKit/537.36 (KHTML, like Gecko) Chrome/124.0.0.0 Safari/537.36" etag="07wxolKwC91hNKPoTfSl" version="24.3.1" type="github">
  <diagram name="Page-1" id="o21uGs_wEzz90U7O6Eoj">
    <mxGraphModel dx="1750" dy="2028" grid="0" gridSize="10" guides="1" tooltips="1" connect="1" arrows="1" fold="1" page="1" pageScale="1" pageWidth="850" pageHeight="1100" math="0" shadow="0">
      <root>
        <mxCell id="0" />
        <mxCell id="1" parent="0" />
        <mxCell id="bsi7E7Kq89fr3UxD9FJx-1" value="Upload Pictures (size 1GB, 100 Pict in a day)&amp;nbsp;&lt;div&gt;Sharing Pictures&lt;br&gt;Traffic: I milion / Hour&lt;/div&gt;&lt;div&gt;70% read Users&lt;br&gt;30% Upldoad&lt;/div&gt;" style="rounded=1;whiteSpace=wrap;html=1;" vertex="1" parent="1">
          <mxGeometry x="370" y="560" width="330" height="90" as="geometry" />
        </mxCell>
        <mxCell id="bsi7E7Kq89fr3UxD9FJx-3" value="Upload" style="rounded=1;whiteSpace=wrap;html=1;" vertex="1" parent="1">
          <mxGeometry x="500" y="70" width="120" height="60" as="geometry" />
        </mxCell>
        <mxCell id="bsi7E7Kq89fr3UxD9FJx-4" value="Read" style="rounded=1;whiteSpace=wrap;html=1;" vertex="1" parent="1">
          <mxGeometry x="500" y="240" width="120" height="60" as="geometry" />
        </mxCell>
        <mxCell id="bsi7E7Kq89fr3UxD9FJx-6" value="Config" style="rounded=1;whiteSpace=wrap;html=1;" vertex="1" parent="1">
          <mxGeometry x="205" y="340" width="120" height="60" as="geometry" />
        </mxCell>
        <mxCell id="bsi7E7Kq89fr3UxD9FJx-13" value="LoadBalancer" style="rounded=1;whiteSpace=wrap;html=1;" vertex="1" parent="1">
          <mxGeometry y="160" width="120" height="60" as="geometry" />
        </mxCell>
        <mxCell id="bsi7E7Kq89fr3UxD9FJx-14" value="" style="rounded=1;whiteSpace=wrap;html=1;" vertex="1" parent="1">
          <mxGeometry x="160" y="130" width="120" height="150" as="geometry" />
        </mxCell>
        <mxCell id="bsi7E7Kq89fr3UxD9FJx-16" value="API Gateway" style="rounded=1;whiteSpace=wrap;html=1;" vertex="1" parent="1">
          <mxGeometry x="180" y="150" width="80" height="30" as="geometry" />
        </mxCell>
        <mxCell id="bsi7E7Kq89fr3UxD9FJx-17" value="API Gateway" style="rounded=1;whiteSpace=wrap;html=1;" vertex="1" parent="1">
          <mxGeometry x="180" y="210" width="80" height="30" as="geometry" />
        </mxCell>
        <mxCell id="bsi7E7Kq89fr3UxD9FJx-20" value="" style="endArrow=classic;startArrow=classic;html=1;rounded=0;entryX=-0.02;entryY=0.415;entryDx=0;entryDy=0;entryPerimeter=0;" edge="1" parent="1" target="bsi7E7Kq89fr3UxD9FJx-14">
          <mxGeometry width="50" height="50" relative="1" as="geometry">
            <mxPoint x="120" y="190" as="sourcePoint" />
            <mxPoint x="170" y="140" as="targetPoint" />
          </mxGeometry>
        </mxCell>
        <mxCell id="bsi7E7Kq89fr3UxD9FJx-22" value="" style="rounded=1;whiteSpace=wrap;html=1;" vertex="1" parent="1">
          <mxGeometry x="450" y="30" width="120" height="60" as="geometry" />
        </mxCell>
        <mxCell id="bsi7E7Kq89fr3UxD9FJx-23" value="" style="rounded=1;whiteSpace=wrap;html=1;" vertex="1" parent="1">
          <mxGeometry x="560" y="280" width="120" height="60" as="geometry" />
        </mxCell>
        <mxCell id="bsi7E7Kq89fr3UxD9FJx-24" value="LB" style="rounded=1;whiteSpace=wrap;html=1;" vertex="1" parent="1">
          <mxGeometry x="320" y="130" width="90" height="40" as="geometry" />
        </mxCell>
        <mxCell id="bsi7E7Kq89fr3UxD9FJx-26" value="LB" style="rounded=1;whiteSpace=wrap;html=1;" vertex="1" parent="1">
          <mxGeometry x="320" y="240" width="110" height="30" as="geometry" />
        </mxCell>
        <mxCell id="bsi7E7Kq89fr3UxD9FJx-27" value="" style="endArrow=none;html=1;rounded=0;" edge="1" parent="1">
          <mxGeometry width="50" height="50" relative="1" as="geometry">
            <mxPoint x="420" y="150" as="sourcePoint" />
            <mxPoint x="490" y="100" as="targetPoint" />
          </mxGeometry>
        </mxCell>
        <mxCell id="bsi7E7Kq89fr3UxD9FJx-28" value="" style="endArrow=classic;html=1;rounded=0;entryX=0;entryY=0.5;entryDx=0;entryDy=0;" edge="1" parent="1" target="bsi7E7Kq89fr3UxD9FJx-4">
          <mxGeometry width="50" height="50" relative="1" as="geometry">
            <mxPoint x="430" y="260" as="sourcePoint" />
            <mxPoint x="480" y="210" as="targetPoint" />
          </mxGeometry>
        </mxCell>
        <mxCell id="bsi7E7Kq89fr3UxD9FJx-29" value="" style="endArrow=classic;html=1;rounded=0;" edge="1" parent="1">
          <mxGeometry width="50" height="50" relative="1" as="geometry">
            <mxPoint x="280" y="210" as="sourcePoint" />
            <mxPoint x="330" y="160" as="targetPoint" />
          </mxGeometry>
        </mxCell>
        <mxCell id="bsi7E7Kq89fr3UxD9FJx-30" value="" style="endArrow=classic;html=1;rounded=0;entryX=0;entryY=0.5;entryDx=0;entryDy=0;" edge="1" parent="1" target="bsi7E7Kq89fr3UxD9FJx-26">
          <mxGeometry width="50" height="50" relative="1" as="geometry">
            <mxPoint x="280" y="230" as="sourcePoint" />
            <mxPoint x="330" y="180" as="targetPoint" />
          </mxGeometry>
        </mxCell>
        <mxCell id="bsi7E7Kq89fr3UxD9FJx-31" value="" style="shape=cylinder3;whiteSpace=wrap;html=1;boundedLbl=1;backgroundOutline=1;size=15;" vertex="1" parent="1">
          <mxGeometry x="390" y="250" width="60" height="80" as="geometry" />
        </mxCell>
        <mxCell id="bsi7E7Kq89fr3UxD9FJx-32" value="Cache" style="rounded=1;whiteSpace=wrap;html=1;" vertex="1" parent="1">
          <mxGeometry x="660" y="180" width="120" height="60" as="geometry" />
        </mxCell>
        <mxCell id="bsi7E7Kq89fr3UxD9FJx-34" value="Agrregator" style="rounded=1;whiteSpace=wrap;html=1;" vertex="1" parent="1">
          <mxGeometry x="790" y="280" width="120" height="60" as="geometry" />
        </mxCell>
        <mxCell id="bsi7E7Kq89fr3UxD9FJx-36" value="Object Store" style="shape=cylinder3;whiteSpace=wrap;html=1;boundedLbl=1;backgroundOutline=1;size=15;" vertex="1" parent="1">
          <mxGeometry x="1020" y="190" width="60" height="80" as="geometry" />
        </mxCell>
        <mxCell id="bsi7E7Kq89fr3UxD9FJx-37" value="" style="endArrow=classic;html=1;rounded=0;entryX=-0.023;entryY=0.397;entryDx=0;entryDy=0;entryPerimeter=0;" edge="1" parent="1">
          <mxGeometry width="50" height="50" relative="1" as="geometry">
            <mxPoint x="620" y="90" as="sourcePoint" />
            <mxPoint x="737.24" y="93.82000000000005" as="targetPoint" />
          </mxGeometry>
        </mxCell>
        <mxCell id="bsi7E7Kq89fr3UxD9FJx-38" value="Kafka Stream" style="shape=process;whiteSpace=wrap;html=1;backgroundOutline=1;" vertex="1" parent="1">
          <mxGeometry x="740" y="70" width="120" height="60" as="geometry" />
        </mxCell>
        <mxCell id="bsi7E7Kq89fr3UxD9FJx-39" value="AVRO Schem,a" style="rounded=1;whiteSpace=wrap;html=1;" vertex="1" parent="1">
          <mxGeometry x="810" y="-40" width="120" height="60" as="geometry" />
        </mxCell>
        <mxCell id="bsi7E7Kq89fr3UxD9FJx-40" value="" style="endArrow=classic;html=1;rounded=0;entryX=-0.027;entryY=0.39;entryDx=0;entryDy=0;entryPerimeter=0;" edge="1" parent="1" target="bsi7E7Kq89fr3UxD9FJx-39">
          <mxGeometry width="50" height="50" relative="1" as="geometry">
            <mxPoint x="620" y="80" as="sourcePoint" />
            <mxPoint x="670" y="30" as="targetPoint" />
          </mxGeometry>
        </mxCell>
        <mxCell id="bsi7E7Kq89fr3UxD9FJx-45" value="" style="shape=cylinder3;whiteSpace=wrap;html=1;boundedLbl=1;backgroundOutline=1;size=15;" vertex="1" parent="1">
          <mxGeometry x="610" y="-50" width="90" height="60" as="geometry" />
        </mxCell>
        <mxCell id="bsi7E7Kq89fr3UxD9FJx-46" value="" style="endArrow=classic;html=1;rounded=0;entryX=0.293;entryY=1.05;entryDx=0;entryDy=0;entryPerimeter=0;" edge="1" parent="1" target="bsi7E7Kq89fr3UxD9FJx-45">
          <mxGeometry width="50" height="50" relative="1" as="geometry">
            <mxPoint x="580" y="70" as="sourcePoint" />
            <mxPoint x="630" y="20" as="targetPoint" />
          </mxGeometry>
        </mxCell>
        <mxCell id="bsi7E7Kq89fr3UxD9FJx-49" value="" style="endArrow=classic;html=1;rounded=0;exitX=1;exitY=0.5;exitDx=0;exitDy=0;entryX=0;entryY=0.5;entryDx=0;entryDy=0;" edge="1" parent="1" source="bsi7E7Kq89fr3UxD9FJx-4" target="bsi7E7Kq89fr3UxD9FJx-34">
          <mxGeometry width="50" height="50" relative="1" as="geometry">
            <mxPoint x="770" y="320" as="sourcePoint" />
            <mxPoint x="820" y="270" as="targetPoint" />
          </mxGeometry>
        </mxCell>
        <mxCell id="bsi7E7Kq89fr3UxD9FJx-50" value="Meta Chunk INforma" style="rounded=1;whiteSpace=wrap;html=1;" vertex="1" parent="1">
          <mxGeometry x="910" y="60" width="120" height="60" as="geometry" />
        </mxCell>
        <mxCell id="bsi7E7Kq89fr3UxD9FJx-51" value="" style="endArrow=classic;html=1;rounded=0;entryX=0.5;entryY=1;entryDx=0;entryDy=0;" edge="1" parent="1" target="bsi7E7Kq89fr3UxD9FJx-50">
          <mxGeometry width="50" height="50" relative="1" as="geometry">
            <mxPoint x="850" y="280" as="sourcePoint" />
            <mxPoint x="900" y="230" as="targetPoint" />
          </mxGeometry>
        </mxCell>
        <mxCell id="bsi7E7Kq89fr3UxD9FJx-52" value="" style="endArrow=classic;html=1;rounded=0;entryX=0.5;entryY=0;entryDx=0;entryDy=0;" edge="1" parent="1" target="bsi7E7Kq89fr3UxD9FJx-50">
          <mxGeometry width="50" height="50" relative="1" as="geometry">
            <mxPoint x="930" y="-10" as="sourcePoint" />
            <mxPoint x="980" y="-60" as="targetPoint" />
          </mxGeometry>
        </mxCell>
        <mxCell id="bsi7E7Kq89fr3UxD9FJx-53" value="Cache" style="rounded=1;whiteSpace=wrap;html=1;" vertex="1" parent="1">
          <mxGeometry x="1110" y="50" width="120" height="60" as="geometry" />
        </mxCell>
        <mxCell id="bsi7E7Kq89fr3UxD9FJx-54" value="" style="endArrow=classic;html=1;rounded=0;entryX=0;entryY=0.5;entryDx=0;entryDy=0;" edge="1" parent="1" target="bsi7E7Kq89fr3UxD9FJx-53">
          <mxGeometry width="50" height="50" relative="1" as="geometry">
            <mxPoint x="1030" y="90" as="sourcePoint" />
            <mxPoint x="1080" y="40" as="targetPoint" />
          </mxGeometry>
        </mxCell>
        <mxCell id="bsi7E7Kq89fr3UxD9FJx-55" value="" style="shape=cylinder3;whiteSpace=wrap;html=1;boundedLbl=1;backgroundOutline=1;size=15;" vertex="1" parent="1">
          <mxGeometry x="1020" y="-70" width="60" height="80" as="geometry" />
        </mxCell>
        <mxCell id="bsi7E7Kq89fr3UxD9FJx-56" value="" style="endArrow=classic;html=1;rounded=0;" edge="1" parent="1">
          <mxGeometry width="50" height="50" relative="1" as="geometry">
            <mxPoint x="990" y="60" as="sourcePoint" />
            <mxPoint x="1040" y="10" as="targetPoint" />
          </mxGeometry>
        </mxCell>
      </root>
    </mxGraphModel>
  </diagram>
</mxfile>
